#!OML:ASF H:\Dans Jumps\Project 1\Capture day 1\Session 1\subject.ASF
:FULLY-SPECIFIED
:DEGREES
1
root 0.326117 17.5059 3.16721 6.57316 -4.34124 -1.13968
lowerback -6.22836 -1.6932 -2.00259
upperback 1.91201 -2.1237 0.565387
thorax 5.57916 -1.12866 1.47779
lowerneck -6.47812 -9.99482 -5.82652
upperneck 8.14078 -13.6413 7.89822
head 4.43781 -6.53735 2.46129
rclavicle 5.81445e-015 2.18663e-014
rhumerus -10.3906 -51.3405 -9.41291
rradius 26.5497
rwrist 41.5872
rhand -6.89239 -23.2212
rfingers 7.12502
rthumb 18.9743 -52.3157
lclavicle 5.81445e-015 2.18663e-014
lhumerus -12.1454 36.0897 11.3052
lradius 26.5179
lwrist -1.34385
lhand -20.3941 -5.70009
lfingers 7.12502
lthumb 5.95931 24.1961
rfemur -17.3207 -4.02708 17.2189
rtibia 30.9893
rfoot -17.7737 -4.86995
rtoes 11.8129
lfemur -13.894 7.19823 -17.0305
ltibia 27.405
lfoot -15.0031 15.2424
ltoes 7.74466
2
root 0.324549 17.5055 3.16642 6.55199 -4.33678 -1.11892
lowerback -6.19833 -1.68855 -2.03615
upperback 1.9049 -2.1152 0.563233
thorax 5.55545 -1.12536 1.4963
lowerneck -6.58147 -9.98614 -5.79776
upperneck 8.25073 -13.6298 7.84107
head 4.48164 -6.52868 2.43318
rclavicle -6.13748e-015 1.25234e-014
rhumerus -10.4342 -51.2497 -9.38791
rradius 26.5696
rwrist 41.5187
rhand -6.94983 -23.3138
rfingers 7.12502
rthumb 18.9191 -52.4137
lclavicle -6.13748e-015 1.25234e-014
lhumerus -12.114 36.0761 11.3386
lradius 26.5445
lwrist -1.2861
lhand -20.4551 -5.62561
lfingers 7.12502
lthumb 5.90047 24.2722
rfemur -17.3084 -4.01472 17.2003
rtibia 31.0053
rfoot -17.7823 -4.88406
rtoes 11.8423
lfemur -13.8696 7.19959 -17.0433
ltibia 27.3963
lfoot -14.9933 15.2194
ltoes 7.72003
3
root 0.324545 17.5059 3.16792 6.56409 -4.32679 -1.08879
lowerback -6.24697 -1.68524 -2.04416
upperback 1.91852 -2.10798 0.543207
thorax 5.59668 -1.12209 1.47917
lowerneck -6.59671 -9.97048 -5.80278
upperneck 8.24036 -13.6118 7.88634
head 4.48337 -6.51757 2.4483
rclavicle 1.49585e-014 -3.37934e-015
rhumerus -10.4934 -51.1961 -9.36324
rradius 26.5961
rwrist 41.4354
rhand -6.9213 -23.2234
rfingers 7.12502
rthumb 18.9465 -52.3207
lclavicle 1.49585e-014 -3.37934e-015
lhumerus -12.0283 36.1807 11.3788
lradius 26.5247
lwrist -1.37036
lhand -20.449 -5.71915
lfingers 7.12502
lthumb 5.90638 24.1785
rfemur -17.3158 -4.07298 17.1675
rtibia 31.0052
rfoot -17.7856 -4.84532
rtoes 11.7327
lfemur -13.8754 7.1992 -17.0788
ltibia 27.3935
lfoot -15.0141 15.2021
ltoes 7.80409
4
root 0.322786 17.5057 3.1671 6.56381 -4.33834 -1.11865
lowerback -6.22131 -1.67115 -2.03101
upperback 1.90715 -2.09151 0.555795
thorax 5.56937 -1.11345 1.48767
lowerneck -6.55947 -9.94569 -5.8107
upperneck 8.24161 -13.5814 7.90619
head 4.47747 -6.5029 2.45981
rclavicle -3.65018e-014 5.76476e-015
rhumerus -10.5094 -51.2782 -9.34246
rradius 26.5743
rwrist 41.5328
rhand -6.90315 -23.1595
rfingers 7.12502
rthumb 18.964 -52.2551
lclavicle -3.65018e-014 5.76476e-015
lhumerus -12.0533 35.9609 11.3473
lradius 26.5161
lwrist -1.38989
lhand -19.9462 -6.4507
lfingers 7.12502
lthumb 6.39175 23.4329
rfemur -17.3204 -4.00019 17.2056
rtibia 31.0071
rfoot -17.7797 -4.89098
rtoes 11.7867
lfemur -13.8796 7.20536 -17.0385
ltibia 27.3931
lfoot -14.9781 15.2241
ltoes 7.6872
5
root 0.322571 17.5058 3.16829 6.57348 -4.32001 -1.12054
lowerback -6.25373 -1.66449 -2.01235
upperback 1.91314 -2.08315 0.549284
thorax 5.59279 -1.10876 1.47037
lowerneck -6.63062 -9.92389 -5.77524
upperneck 8.29986 -13.5552 7.89197
head 4.50185 -6.48661 2.4476
rclavicle -7.40473e-015 -3.37934e-015
rhumerus -10.5724 -51.2385 -9.31133
rradius 26.5872
rwrist 41.4621
rhand -6.96501 -23.1859
rfingers 7.12502
rthumb 18.9045 -52.2872
lclavicle -7.40473e-015 -3.37934e-015
lhumerus -11.9833 35.9443 11.4
lradius 26.5205
lwrist -1.41005
lhand -19.9463 -6.45736
lfingers 7.12502
lthumb 6.39165 23.4262
rfemur -17.3206 -4.09669 17.2106
rtibia 31.0075
rfoot -17.7847 -4.83663
rtoes 11.697
lfemur -13.8832 7.18659 -17.0374
ltibia 27.3898
lfoot -14.9865 15.2242
ltoes 7.68231
